<?xml version="1.0" encoding="UTF-8" standalone="no"?>
<svg
   xmlns:dc="http://purl.org/dc/elements/1.1/"
   xmlns:cc="http://creativecommons.org/ns#"
   xmlns:rdf="http://www.w3.org/1999/02/22-rdf-syntax-ns#"
   xmlns:svg="http://www.w3.org/2000/svg"
   xmlns="http://www.w3.org/2000/svg"
   xmlns:sodipodi="http://sodipodi.sourceforge.net/DTD/sodipodi-0.dtd"
   xmlns:inkscape="http://www.inkscape.org/namespaces/inkscape"
   width="231pt"
   height="38pt"
   viewBox="0 0 231 38"
   version="1.1"
   id="svg2985"
   inkscape:version="0.48.4 r9939"
   sodipodi:docname="Ryanair_logo_from_2013[1].svg">
  <metadata
     id="metadata3021">
    <rdf:RDF>
      <cc:Work
         rdf:about="">
        <dc:format>image/svg+xml</dc:format>
        <dc:type
           rdf:resource="http://purl.org/dc/dcmitype/StillImage" />
        <dc:title></dc:title>
      </cc:Work>
    </rdf:RDF>
  </metadata>
  <defs
     id="defs3019" />
  <sodipodi:namedview
     pagecolor="#ffffff"
     bordercolor="#666666"
     borderopacity="1"
     objecttolerance="10"
     gridtolerance="10"
     guidetolerance="10"
     inkscape:pageopacity="0"
     inkscape:pageshadow="2"
     inkscape:window-width="1280"
     inkscape:window-height="962"
     id="namedview3017"
     showgrid="false"
     inkscape:zoom="8.3948052"
     inkscape:cx="-3.2063265"
     inkscape:cy="18.647973"
     inkscape:window-x="-8"
     inkscape:window-y="-8"
     inkscape:window-maximized="1"
     inkscape:current-layer="svg2985" />
  <path
     fill="#22356b"
     d=" M 0.00 0.00 L 231.00 0.00 L 231.00 38.00 L 0.00 38.00 L 0.00 0.00 Z"
     id="path2987" />
  <path
     fill="#ffffff"
     d=" M 35.06 5.00 C 40.73 5.11 46.42 4.75 52.08 5.21 C 55.88 5.56 60.34 7.84 60.77 12.04 C 60.95 15.27 57.94 17.19 55.47 18.56 C 57.80 22.01 60.07 25.51 62.34 28.99 C 59.37 29.00 56.39 29.01 53.41 28.98 C 51.41 25.84 49.37 22.73 47.34 19.61 C 45.99 19.60 44.65 19.60 43.30 19.59 C 43.29 22.73 43.29 25.86 43.29 29.00 C 40.53 29.00 37.76 29.00 35.00 29.00 C 35.03 21.00 34.94 13.00 35.06 5.00 Z"
     id="path2991" />
  <path
     fill="#ffffff"
     d=" M 61.19 5.01 C 64.23 5.00 67.28 5.00 70.32 4.99 C 72.65 8.13 74.96 11.28 77.30 14.41 C 79.66 11.31 82.10 8.27 84.35 5.08 C 87.39 4.98 90.43 4.98 93.47 5.01 C 89.43 9.81 85.41 14.63 81.36 19.43 C 81.35 22.62 81.35 25.81 81.35 29.00 C 78.59 29.00 75.82 29.00 73.06 29.00 C 73.07 25.76 73.07 22.52 73.02 19.29 C 69.03 14.56 65.13 9.77 61.19 5.01 Z"
     id="path2993" />
  <path
     fill="#ffffff"
     d=" M 99.35 5.02 C 102.79 4.97 106.24 4.96 109.68 5.10 C 112.88 13.14 116.46 21.02 119.80 29.00 C 116.95 29.00 114.11 29.00 111.26 29.00 C 110.51 27.08 109.74 25.18 108.94 23.28 C 105.97 23.34 102.99 23.34 100.02 23.33 C 99.27 25.22 98.52 27.11 97.77 29.00 C 94.91 29.00 92.06 29.00 89.20 28.98 C 92.62 21.01 95.99 13.02 99.35 5.02 Z"
     id="path2995" />
  <path
     fill="#ffffff"
     d=" M 122.17 5.00 C 125.83 5.01 129.49 5.03 133.14 4.93 C 136.31 9.31 139.25 13.85 142.34 18.28 C 142.35 13.86 142.42 9.43 142.41 5.01 C 145.18 5.00 147.95 5.00 150.72 5.01 C 150.60 13.00 150.65 21.00 150.65 28.99 C 147.84 29.00 145.03 29.00 142.22 29.00 C 138.31 23.45 134.40 17.90 130.48 12.37 C 130.48 17.91 130.46 23.46 130.40 29.00 C 127.65 29.00 124.90 29.00 122.16 29.00 C 122.20 21.00 122.17 13.00 122.17 5.00 Z"
     id="path2997" />
  <path
     fill="#ffffff"
     d=" M 163.15 5.00 C 166.52 5.00 169.89 5.00 173.26 4.98 C 176.76 12.96 180.13 20.99 183.58 29.00 C 180.73 29.00 177.88 29.00 175.03 29.00 C 174.28 27.11 173.54 25.22 172.79 23.33 C 169.78 23.33 166.77 23.33 163.76 23.34 C 163.04 25.21 162.32 27.08 161.60 28.96 C 158.73 29.01 155.86 29.01 153.00 29.00 C 156.38 21.00 159.77 13.00 163.15 5.00 Z"
     id="path2999" />
  <path
     fill="#ffffff"
     d=" M 185.95 5.00 C 188.71 5.00 191.47 5.00 194.23 5.00 C 194.23 13.00 194.23 21.00 194.23 29.00 C 191.47 29.00 188.71 29.00 185.95 29.00 C 185.94 21.00 185.94 13.00 185.95 5.00 Z"
     id="path3001" />
  <path
     fill="#ffffff"
     d=" M 199.65 5.00 C 205.45 5.13 211.27 4.71 217.05 5.25 C 220.74 5.70 225.00 7.94 225.41 12.03 C 225.57 15.29 222.57 17.16 220.10 18.55 C 222.43 22.01 224.69 25.51 226.98 28.99 C 224.01 29.00 221.05 29.00 218.08 29.00 C 216.04 25.87 214.00 22.73 211.96 19.60 C 210.62 19.60 209.28 19.60 207.94 19.60 C 207.94 22.73 207.94 25.87 207.94 29.00 C 205.18 29.00 202.41 29.00 199.65 29.00 C 199.65 21.00 199.65 13.00 199.65 5.00 Z"
     id="path3003" />
  <path
     fill="#22356b"
     d=" M 43.29 10.24 C 46.24 10.63 50.47 9.21 52.40 12.09 C 51.18 15.60 46.18 13.91 43.30 14.43 C 43.30 13.04 43.29 11.64 43.29 10.24 Z"
     id="path3009" />
  <path
     fill="#22356b"
     d=" M 207.94 10.24 C 210.81 10.72 216.29 8.90 217.02 12.80 C 214.73 15.19 210.91 14.07 207.94 14.43 C 207.94 13.03 207.94 11.64 207.94 10.24 Z"
     id="path3011" />
  <path
     fill="#22356b"
     d=" M 104.52 11.47 C 105.40 13.75 106.27 16.04 107.13 18.34 C 105.39 18.33 103.66 18.33 101.92 18.33 C 102.79 16.04 103.65 13.75 104.52 11.47 Z"
     id="path3013" />
  <path
     fill="#22356b"
     d=" M 165.70 18.33 C 166.56 16.04 167.43 13.75 168.32 11.47 C 169.18 13.75 170.05 16.04 170.90 18.34 C 169.16 18.33 167.43 18.33 165.70 18.33 Z"
     id="path3015" />
  <g
     id="g4358"
     transform="matrix(0.10514365,0,0,0.10514365,17.768963,19.098141)">
    <path
       sodipodi:nodetypes="cccscssscscsccccscscscscsccsccscsscscc"
       inkscape:connector-curvature="0"
       id="path3042"
       d="m 114.0888,-160.3492 -2.80175,1.68065 -11.861346,8.66946 c 0,0 -10.28571,6.85714 -28,8 -17.71428,1.14286 -62.8571404,-5.14286 -62.8571404,-5.14286 0,0 -25.1428596,-3.42856 -50.8571436,1.71429 -25.71429,5.14286 -23.42857,20.57143 -24.000002,22.85715 -0.571424,2.28571 -16.404064,31.797965 -19.832632,35.226533 -3.428576,3.428568 -1.310224,-16.940823 -1.310224,-16.940823 0,0 -1.979696,-17.17752 -17.142852,-14.85715 -13.10168,2.00492 -25.14286,5.71429 -25.14286,5.71429 0,0 -4,5.14286 -2.28572,9.14286 1.71429,4 3.42858,4.571423 3.42858,4.571423 l -0.57144,17.17752 c 0.80812,3.434516 4.57144,9.67962 4.57144,9.67962 l 9.71428,-1.142856 c 0,0 6.43358,6.70016 4.13271,9.581584 -4.87747,6.108134 -13.27557,24.132704 -13.27557,24.132704 0,0 -1.37954,8.1327 0.90617,12.70414 2.28571,4.57142 4.32284,16.7556 11.3939,27.26119986 3.63655,5.05076004 36.842794,43.46323014 39.69993,46.89180014 2.857144,3.42857 72.00000362,38.85715 72.00000362,38.85715 0,0 20.25946038,9.86975 47.42857038,39.428565 14.55644,15.83679 28.60015,31.86134 28.60015,31.86134 0,0 7.94257,5.19537 5.11414,-3.28991 -5.71429,-17.14286 -33.14286,-55.999995 -33.14286,-55.999995 l -21.71428,-25.71429 c 0,0 -12,-13.14286 -26.85715038,-16 C -10.612386,53.784785 -21.717146,39.143765 -21.717146,39.143765 L -42.28858,16.858055 c 0,0 -6.857144,-21.1428601 -24.571426,-26.2857201 -7.643472,-2.2190699 -8.704136,-7.4285699 -8.704136,-7.4285699 0,0 0.704136,-26.28571 2.989848,-36.57143 2.285712,-10.285716 18.285712,-34.857136 37.142858,-40.571424 18.85714,-5.714288 45.71429,-4 45.71429,-4 0,0 43.42857,-0.571424 72,-20.571421 28.571416,-20 34.585776,-31.75736 34.585776,-31.75736 0,0 4.91211,-14.70168 -2.77983,-10.02133 z"
       style="fill:#fcc210;fill-opacity:1;stroke:none" />
    <path
       sodipodi:nodetypes="csssc"
       inkscape:connector-curvature="0"
       id="path3812"
       d="m -12.660756,-73.819509 c 0,0 -7.67717,47.679204 -6.46498,74.9533239 0.68269,15.3604001 -7.06364,15.6435401 -9.49544,3.63654 -3.23248,-15.9604099 -5.0615,-68.1589839 -2.62639,-79.3979839 2.62639,-12.121828 18.99087,-19.394924 18.58681,0.80812 z"
       style="fill:#fcc210;fill-opacity:1;stroke:none" />
    <path
       sodipodi:nodetypes="cssssssc"
       inkscape:connector-curvature="0"
       id="path3814"
       d="m 0.87528362,-69.576869 c 0,0 -6.26294002,40.002044 -4.64670002,69.90256386 1.61624,29.90051014 4.84873,36.97157014 5.85888,39.59797014 1.01016,2.6264 6.66701,7.47513 6.86904,-3.43452 0.20203,-10.90965 4.6467004,-54.14417 9.2934004,-81.21626 4.6467,-27.07209 3.23249,-26.26397 3.23249,-34.345186 0,-8.08122 -16.0952104,-16.296372 -18.9908604,-1.81828 -0.80813,4.040608 -1.61624998,11.313712 -1.61624998,11.313712 z"
       style="fill:#fcc210;fill-opacity:1;stroke:none" />
    <path
       sodipodi:nodetypes="ccsccsssc"
       inkscape:connector-curvature="0"
       id="path3816"
       d="m 39.261084,-87.153521 -0.80813,2.222336 c 0,0 -3.63654,18.18274 -4.84873,25.8599 -1.21218,7.67716 -12.12183,65.4578899 -4.6467,104.44978 2.22234,15.55635 3.83858,21.2132 3.83858,21.2132 0,0 8.08122,15.15228 8.68732,-0.80812 0.60608,-15.96041 -3.03047,-39.39596 6.06091,-82.02439 9.09137,-42.62844 11.51573,-58.588846 11.51573,-65.659914 0,-7.071064 -6.86903,-21.415231 -19.79898,-5.252792 z"
       style="fill:#fcc210;fill-opacity:1;stroke:none" />
    <path
       sodipodi:nodetypes="cssccsssc"
       inkscape:connector-curvature="0"
       id="path3818"
       d="m 76.838754,-97.861137 c 4.24264,-7.071063 18.78884,-12.525893 21.01118,2.6264 2.222326,15.152284 -15.33951,86.0674819 -16.16245,90.9137219 -1.81827,10.70762 -13.20461,75.3251501 -10.30355,106.8741351 0.60609,17.37462 -8.88934,6.26295 -9.8995,-0.60609 -1.61624,-5.656855 -5.65685,-57.578695 -1.01015,-90.509665 4.6467,-32.93097 9.8995,-61.21524 10.50558,-65.45788 0.6061,-4.24264 2.22234,-21.617266 2.22234,-28.28427 0,-6.667008 3.63655,-15.556352 3.63655,-15.556352 z"
       style="fill:#fcc210;fill-opacity:1;stroke:none" />
  </g>
</svg>
